<svg width="12" height="12" viewBox="0 0 12 12" fill="none" xmlns="http://www.w3.org/2000/svg">
<path d="M9.74364 3.78076C10.7 3.78077 11.49 4.46269 11.49 5.53316C11.49 6.66076 10.6856 7.46882 9.64596 7.46883C9.27929 7.46883 8.94564 7.40054 8.67113 7.24654C8.44616 7.12041 8.26275 6.93773 8.13413 6.69225L7.86765 8.552L7.86103 8.59876H7.32321L7.33237 8.53637L8.01088 3.87845H8.54353L8.48733 4.22478C8.80872 3.93197 9.24177 3.78077 9.74364 3.78076ZM2.344 3.7868C2.71065 3.7868 3.04581 3.85514 3.32184 4.00983C3.54796 4.13651 3.73243 4.32012 3.86147 4.5674L3.95128 3.92538L3.95778 3.87841H4.48953L3.99205 7.33045L3.98525 7.3772H3.45345L3.50489 7.02585C3.18619 7.32355 2.74803 7.47499 2.24635 7.47499C1.29001 7.47499 0.500007 6.79294 0.5 5.72248C0.500006 4.59484 1.30446 3.78683 2.344 3.7868ZM5.05238 7.33057L5.0456 7.37723H4.51389L5.0178 3.92511L5.02446 3.87845H5.55562L5.05238 7.33057ZM6.00955 7.33057L6.00273 7.37723H5.47106L5.97493 3.92511L5.98163 3.87845H6.51275L6.00955 7.33057ZM7.46984 3.87845L6.96656 7.33057L6.95979 7.37723H6.42811L6.93198 3.92511L6.93868 3.87845H7.46984ZM2.39896 4.25014C1.5913 4.25016 1.04884 4.89228 1.04882 5.698C1.04882 6.04417 1.15835 6.37263 1.37396 6.61377C1.5887 6.85392 1.91243 7.01166 2.35019 7.01166C3.15752 7.01163 3.70031 6.36369 3.70034 5.55764C3.70034 5.16752 3.56469 4.84134 3.33611 4.6128C3.10763 4.38426 2.78285 4.25014 2.39896 4.25014ZM9.63978 4.24406C8.83245 4.24408 8.28966 4.89195 8.28966 5.698C8.28966 6.0881 8.4254 6.41427 8.65386 6.64276C8.88235 6.87135 9.20711 7.0055 9.59097 7.0055C10.3986 7.00549 10.9411 6.36337 10.9412 5.55764C10.9412 5.21147 10.8317 4.88298 10.6161 4.64187C10.4014 4.40174 10.0776 4.24406 9.63978 4.24406Z" fill="black"/>
</svg>
