<svg width="12" height="12" viewBox="0 0 12 12" fill="none" xmlns="http://www.w3.org/2000/svg">
<g clip-path="url(#clip0_48_929)">
<path fill-rule="evenodd" clip-rule="evenodd" d="M6 0C9.315 0 12 2.638 12 5.895C11.9995 8.4285 10.355 10.6785 7.9125 11.4885C7.6125 11.5475 7.5 11.3635 7.5 11.2085C7.5 11.0095 7.5075 10.376 7.5075 9.5875C7.5075 9.035 7.32 8.681 7.1025 8.497C8.4375 8.3495 9.84 7.8485 9.84 5.586C9.84 4.9375 9.6075 4.414 9.225 4.0015C9.285 3.854 9.495 3.25 9.165 2.439C9.165 2.439 8.6625 2.277 7.515 3.0435C7.02616 2.91033 6.52165 2.8434 6.015 2.8445C5.505 2.8445 4.995 2.911 4.515 3.0435C3.3675 2.2845 2.865 2.439 2.865 2.439C2.535 3.25 2.745 3.854 2.805 4.0015C2.4225 4.414 2.19 4.945 2.19 5.586C2.19 7.841 3.585 8.3495 4.92 8.497C4.7475 8.644 4.59 8.902 4.5375 9.2855C4.1925 9.4405 3.33 9.6905 2.79 8.799C2.6775 8.622 2.34 8.1875 1.8675 8.1945C1.365 8.202 1.665 8.4745 1.875 8.585C2.13 8.725 2.4225 9.2485 2.49 9.418C2.61 9.7495 3 10.383 4.5075 10.1105C4.5075 10.6045 4.515 11.0685 4.515 11.2085C4.515 11.3635 4.4025 11.5405 4.1025 11.4885C1.6515 10.687 -0.00149898 8.4335 1.02003e-06 5.8955C1.02003e-06 2.638 2.685 0 6 0Z" fill="black"/>
</g>
<defs>
<clipPath id="clip0_48_929">
<rect width="12" height="12" fill="white"/>
</clipPath>
</defs>
</svg>
