<svg width="12" height="12" viewBox="0 0 12 12" fill="none" xmlns="http://www.w3.org/2000/svg">
<g clip-path="url(#clip0_48_925)">
<path fill-rule="evenodd" clip-rule="evenodd" d="M10.7974 11.805C11.3809 11.678 11.9999 11.333 11.9999 11.333L10.9164 10.441C10.381 10.0001 9.92525 9.47058 9.56895 8.8755C9.07657 8.05328 8.39631 7.35948 7.58395 6.851L7.18695 6.62C7.11878 6.57423 7.06156 6.51398 7.01938 6.44353C6.9772 6.37309 6.9511 6.2942 6.94295 6.2125C6.93284 6.1105 6.96021 6.0083 7.01995 5.925C7.22645 5.634 8.29395 4.3675 8.48995 4.205C8.74145 3.997 9.02245 3.824 9.28295 3.6255C9.31995 3.5975 9.35695 3.5695 9.39345 3.5405C9.39495 3.5395 9.39695 3.5385 9.39795 3.537C9.48145 3.4715 9.56045 3.401 9.62295 3.318C9.84945 3.056 9.90445 2.824 9.91795 2.7215C9.88745 2.623 9.79595 2.402 9.54145 2.1475C9.70095 2.1575 9.89395 2.2835 10.0694 2.432C10.1869 2.244 10.3099 2.0455 10.4329 1.8465C10.5154 1.7135 10.3929 1.614 10.3899 1.611H10.3894V1.61C10.3859 1.6065 10.2864 1.485 10.1539 1.567C9.87045 1.742 9.58695 1.918 9.33445 2.0775C9.33445 2.0775 9.03595 2.0715 8.68195 2.377C8.59965 2.44235 8.52605 2.51797 8.46295 2.602L8.45945 2.6065C8.43045 2.6425 8.40245 2.68 8.37445 2.717C8.17595 2.9775 8.00295 3.2585 7.79445 3.5105C7.63295 3.706 6.36595 4.7735 6.07445 4.9805C5.99125 5.04002 5.88923 5.06721 5.78745 5.057C5.70575 5.04885 5.62686 5.02275 5.55641 4.98057C5.48597 4.93839 5.42571 4.88117 5.37995 4.813L5.14895 4.416C4.64053 3.60359 3.94671 2.92332 3.12445 2.431C2.5296 2.07458 2.00026 1.61881 1.55945 1.0835L0.665947 0C0.665947 0 0.321447 0.619 0.194947 1.2025C0.370947 1.4165 0.829947 1.9475 1.36495 2.3535C0.789947 2.0835 0.364947 1.875 0.0299468 1.7C-0.0215532 2.0825 -0.00155317 2.66 0.0514468 3.108C0.414447 3.2665 1.03195 3.511 1.66095 3.641C1.15795 3.759 0.605947 3.78 0.180447 3.772C0.255447 4.049 0.359447 4.3315 0.500447 4.616C0.559947 4.7475 0.625447 4.876 0.695447 5.001C0.921447 5.0635 1.80645 5.1925 2.27745 5.0865L1.02245 5.535C1.41544 6.01731 1.8404 6.47267 2.29445 6.898C3.30995 6.352 3.54145 6.2775 4.30345 5.779C3.06995 6.783 2.74945 7.193 2.40345 7.614L2.16195 7.953C2.03695 8.1285 1.92745 8.3155 1.83695 8.5115C1.53195 9.1665 1.10195 10.5615 1.10195 10.5615C1.02495 10.8045 1.20295 10.9825 1.43895 10.8985C1.43895 10.8985 2.83395 10.468 3.48895 10.1635C3.68495 10.0725 3.87195 9.9635 4.04795 9.8385L4.38645 9.597C4.49995 9.5035 4.61295 9.412 4.73695 9.304C4.73695 9.304 5.58945 10.314 6.46595 10.9785L6.91395 9.723C6.80845 10.194 6.93695 11.079 6.99895 11.3045C7.12495 11.3755 7.25345 11.4405 7.38495 11.5005C7.66945 11.6405 7.95195 11.7455 8.22895 11.8205C8.22095 11.394 8.24195 10.8425 8.35945 10.3395C8.48945 10.9685 8.73445 11.586 8.89295 11.949C9.34045 12.002 9.91845 12.022 10.3009 11.9705C10.074 11.5299 9.85597 11.0848 9.64695 10.6355C10.0524 11.1705 10.5839 11.6295 10.7979 11.8055L10.7974 11.805Z" fill="black"/>
</g>
<defs>
<clipPath id="clip0_48_925">
<rect width="12" height="12" fill="white"/>
</clipPath>
</defs>
</svg>
