<svg width="12" height="12" viewBox="0 0 12 12" fill="none" xmlns="http://www.w3.org/2000/svg">
<g clip-path="url(#clip0_48_935)">
<path fill-rule="evenodd" clip-rule="evenodd" d="M10.7744 5.00208C10.8992 4.63192 10.9425 4.23913 10.9013 3.85067C10.86 3.4622 10.7352 3.08726 10.5354 2.75158C9.92689 1.70658 8.70439 1.16858 7.51039 1.42158C7.24594 1.12878 6.92248 0.895286 6.56131 0.736461C6.20014 0.577635 5.80943 0.497075 5.41489 0.500081C4.19439 0.497581 3.11139 1.27308 2.73589 2.41908C2.34992 2.49635 1.98479 2.6548 1.66472 2.88392C1.34465 3.11305 1.07695 3.40762 0.879394 3.74808C0.580783 4.25521 0.453162 4.84493 0.515376 5.43014C0.577589 6.01536 0.826338 6.56506 1.22489 6.99808C1.0999 7.36828 1.0565 7.76114 1.09766 8.1497C1.13883 8.53825 1.2636 8.9133 1.46339 9.24908C2.07189 10.2941 3.29439 10.8316 4.48839 10.5791C4.75276 10.8718 5.07614 11.1053 5.43723 11.264C5.79833 11.4227 6.18896 11.5032 6.58339 11.5001C7.80489 11.5031 8.88839 10.7271 9.26389 9.58008C9.65013 9.50283 10.0155 9.34429 10.3358 9.11498C10.656 8.88567 10.9238 8.59084 11.1214 8.25008C11.4194 7.74298 11.5466 7.15353 11.4843 6.56865C11.4219 5.98376 11.1732 5.43441 10.7749 5.00158L10.7744 5.00208ZM6.58389 10.7811C6.09619 10.7823 5.62329 10.6136 5.24639 10.3041C5.26339 10.2951 5.29289 10.2791 5.31239 10.2671L7.53239 9.00208C7.5878 8.97116 7.63391 8.92596 7.66591 8.87117C7.69792 8.81639 7.71466 8.75403 7.71439 8.69058V5.60258L8.65289 6.13708C8.66289 6.14208 8.66939 6.15158 8.67089 6.16208V8.71958C8.66939 9.85658 7.73589 10.7786 6.58389 10.7811ZM2.09539 8.89008C1.85071 8.47386 1.76242 7.98404 1.84639 7.50858C1.86239 7.51858 1.89139 7.53608 1.91189 7.54758L4.13189 8.81258C4.24439 8.87758 4.38389 8.87758 4.49689 8.81258L7.20689 7.26858V8.33758C7.20711 8.34307 7.206 8.34853 7.20365 8.35349C7.2013 8.35845 7.19778 8.36277 7.19339 8.36608L4.94939 9.64408C3.94989 10.2121 2.67339 9.87408 2.09589 8.88908L2.09539 8.89008ZM1.51089 4.10808C1.75654 3.68908 2.14138 3.36953 2.59839 3.20508L2.59739 3.28058V5.81058C2.59709 5.8741 2.61381 5.93655 2.64582 5.99142C2.67782 6.04629 2.72395 6.09158 2.77939 6.12258L5.48939 7.66608L4.55139 8.20108C4.54675 8.20406 4.54145 8.20584 4.53596 8.20628C4.53046 8.20671 4.52495 8.20579 4.51989 8.20358L2.27539 6.92408C1.27789 6.35408 0.935894 5.09508 1.51039 4.10908L1.51089 4.10808ZM9.21939 5.87808L6.50939 4.33408L7.44739 3.80008C7.45199 3.79702 7.45727 3.79515 7.46277 3.79463C7.46826 3.7941 7.4738 3.79495 7.47889 3.79708L9.72339 5.07558C10.7224 5.64558 11.0649 6.90658 10.4879 7.89208C10.242 8.31082 9.85752 8.63042 9.40089 8.79558V6.19008C9.40121 6.12668 9.38455 6.06436 9.35263 6.00958C9.32071 5.9548 9.27471 5.90957 9.21939 5.87858V5.87808ZM10.1529 4.49158C10.1311 4.4783 10.1091 4.4653 10.0869 4.45258L7.86689 3.18758C7.81145 3.15569 7.74861 3.1389 7.68464 3.1389C7.62068 3.1389 7.55784 3.15569 7.50239 3.18758L4.79239 4.73158V3.66258C4.79218 3.65709 4.79329 3.65163 4.79564 3.64667C4.79799 3.64171 4.80151 3.63739 4.80589 3.63408L7.04939 2.35658C8.04939 1.78808 9.32689 2.12658 9.90289 3.11308C10.1464 3.52958 10.2354 4.01758 10.1529 4.49158ZM4.28239 6.39658L3.34389 5.86258C3.33899 5.86018 3.33478 5.85659 3.33163 5.85213C3.32849 5.84768 3.32651 5.8425 3.32589 5.83708V3.27958C3.32639 2.14108 4.26239 1.21858 5.41639 1.21958C5.90439 1.21958 6.37639 1.38858 6.75189 1.69658C6.73489 1.70558 6.70589 1.72158 6.68639 1.73308L4.46639 2.99808C4.4109 3.02894 4.36469 3.07411 4.33259 3.1289C4.30049 3.18369 4.28367 3.24608 4.28389 3.30958L4.28239 6.39608V6.39658ZM4.79239 5.31258L5.99939 4.62508L7.20639 5.31258V6.68758L5.99939 7.37508L4.79189 6.68758V5.31258H4.79239Z" fill="black"/>
</g>
<defs>
<clipPath id="clip0_48_935">
<rect width="12" height="12" fill="white"/>
</clipPath>
</defs>
</svg>
